<svg xmlns="http://www.w3.org/2000/svg" xmlns:xlink="http://www.w3.org/1999/xlink" width="500" zoomAndPan="magnify" viewBox="0 0 375 374.999991" height="500" preserveAspectRatio="xMidYMid meet" version="1.0"><defs><g/><clipPath id="e02b861d48"><path d="M 224 130 L 278 130 L 278 209 L 224 209 Z M 224 130 " clip-rule="nonzero"/></clipPath><clipPath id="4552db8f29"><path d="M 224.429688 210.015625 L 221.363281 130.574219 L 280.566406 128.285156 L 283.636719 207.726562 Z M 224.429688 210.015625 " clip-rule="nonzero"/></clipPath><clipPath id="ae256692dc"><path d="M 224.429688 210.015625 L 221.363281 130.574219 L 280.566406 128.285156 L 283.636719 207.726562 Z M 224.429688 210.015625 " clip-rule="nonzero"/></clipPath><clipPath id="f182d5dcdd"><path d="M 112 124 L 263 124 L 263 209.65625 L 112 209.65625 Z M 112 124 " clip-rule="nonzero"/></clipPath></defs><g clip-path="url(#e02b861d48)"><g clip-path="url(#4552db8f29)"><g clip-path="url(#ae256692dc)"><path fill="#ffbb02" d="M 231.058594 167.199219 C 231.140625 182.070312 229.246094 191.019531 229.035156 191.285156 C 227.441406 198.191406 224.160156 203.058594 225.066406 206.066406 C 225.714844 208.21875 227.460938 209.886719 232.675781 208.285156 C 246.210938 204.140625 248.890625 199.917969 254.605469 192.570312 C 265.238281 178.898438 281.675781 156.992188 276.273438 140.507812 C 272.902344 130.199219 252.613281 129.371094 241.917969 130.824219 C 225.320312 133.085938 230.910156 139.847656 231.058594 167.199219 Z M 231.058594 167.199219 " fill-opacity="1" fill-rule="nonzero"/></g></g></g><path fill="#ffbb02" d="M 114.457031 186.25 C 117.472656 198.980469 127.402344 202.089844 143.652344 205.386719 C 171.703125 211.070312 217.738281 214.820312 225.59375 187.371094 C 228.167969 178.378906 230.011719 148.484375 217.789062 138.105469 C 209.324219 130.914062 188.644531 125.308594 183.539062 123.699219 C 141.671875 110.578125 133.460938 111.914062 126.332031 115.933594 C 112.480469 123.746094 111.550781 173.984375 114.457031 186.25 Z M 114.457031 186.25 " fill-opacity="1" fill-rule="nonzero"/><g clip-path="url(#f182d5dcdd)"><path fill="#000001" d="M 191.382812 134.332031 C 189.804688 137.53125 189.550781 140.804688 189.539062 142.464844 C 189.515625 146.546875 190.691406 149.042969 191.214844 149.050781 C 191.441406 149.050781 192.308594 148 192.433594 142.832031 C 192.515625 139.53125 192.164062 136.695312 191.382812 134.332031 Z M 193.410156 160.414062 C 193.636719 162.570312 193.628906 165.382812 193.464844 168.132812 C 219.394531 168.054688 241.5625 167.476562 245.351562 166.796875 C 242.035156 163.546875 236.332031 158.472656 233.929688 158.050781 C 230.816406 157.503906 199.367188 156.753906 195.566406 157 C 194.804688 157.050781 194 158.339844 193.410156 160.414062 Z M 192.664062 164.488281 C 192.546875 165.628906 192.488281 166.851562 192.503906 168.132812 C 192.511719 168.132812 192.519531 168.132812 192.53125 168.132812 C 192.605469 166.914062 192.652344 165.675781 192.664062 164.488281 Z M 138.246094 166.550781 C 140.835938 167.566406 161.929688 168.203125 191.609375 168.136719 C 191.578125 165.410156 191.890625 162.585938 192.5 160.359375 C 192.394531 159.355469 192.226562 158.519531 191.996094 157.9375 C 191.828125 157.515625 191.632812 157.265625 191.46875 157.265625 C 190.210938 157.265625 182.917969 157.460938 174.476562 157.6875 C 163.453125 157.984375 150.960938 158.320312 148.136719 158.320312 C 145.511719 158.320312 140.664062 162.757812 138.246094 166.550781 Z M 193 172.949219 C 193.609375 175.800781 194.824219 178.03125 196.875 178.085938 C 202.832031 178.234375 234.210938 178.128906 243.6875 178.09375 C 244.808594 178.089844 245.738281 177.214844 245.808594 176.105469 C 245.976562 173.453125 246.21875 170.339844 246.554688 167.160156 C 246.535156 167.210938 246.507812 167.257812 246.46875 167.300781 C 246.238281 167.574219 245.800781 168.078125 229.113281 168.539062 C 219.394531 168.808594 206.410156 168.984375 193.40625 169.023438 C 193.304688 170.398438 193.167969 171.738281 193 172.949219 Z M 159.484375 190.859375 C 175.445312 191.515625 216.121094 192.917969 241.089844 191.414062 C 240.515625 190.820312 239.855469 190.460938 239.101562 190.402344 C 205.753906 187.8125 173.148438 189.777344 159.484375 190.859375 Z M 239.003906 194.183594 C 238.832031 194.183594 238.671875 194.265625 238.566406 194.40625 C 238.464844 194.546875 238.4375 194.722656 238.496094 194.890625 L 242.414062 206.5 C 242.492188 206.730469 242.722656 206.882812 242.960938 206.867188 L 243.933594 206.800781 C 244.21875 206.78125 244.441406 206.546875 244.4375 206.261719 C 244.402344 201.882812 243.894531 197.292969 242.707031 194.183594 Z M 134.300781 191.195312 C 136.300781 191.984375 138.402344 192.300781 139.621094 192.425781 C 140.011719 192.464844 140.371094 192.664062 140.613281 192.972656 C 140.851562 193.285156 140.953125 193.683594 140.890625 194.074219 L 138.59375 208.140625 C 138.566406 208.296875 138.613281 208.449219 138.714844 208.574219 C 138.820312 208.695312 138.964844 208.761719 139.125 208.761719 L 140.894531 208.761719 C 141.148438 208.761719 141.363281 208.589844 141.421875 208.347656 L 145.292969 191.851562 C 145.332031 191.691406 145.292969 191.527344 145.191406 191.398438 C 145.085938 191.269531 144.933594 191.195312 144.769531 191.195312 Z M 113.292969 190.300781 L 130.929688 190.300781 C 130.082031 189.621094 129.367188 188.789062 128.890625 187.773438 C 126.765625 183.230469 117.453125 155.253906 121.21875 148.921875 C 121.742188 148.039062 122.484375 147.558594 123.433594 147.496094 C 128.136719 147.171875 130.578125 155.847656 132.949219 164.226562 C 134.703125 170.421875 136.515625 176.824219 138.972656 178.136719 C 141.453125 179.460938 152.195312 180.078125 166.351562 179.707031 C 180.449219 179.339844 190.113281 178.230469 190.984375 177.414062 C 191.363281 177.058594 191.757812 175.296875 192.070312 172.949219 C 191.835938 171.789062 191.6875 170.476562 191.628906 169.027344 C 178.105469 169.054688 140.019531 168.96875 137.519531 167.167969 C 137.179688 166.921875 137.171875 166.578125 137.316406 166.34375 C 139.601562 162.621094 144.820312 157.429688 148.136719 157.429688 C 150.949219 157.429688 163.433594 157.09375 174.449219 156.796875 C 182.898438 156.570312 190.199219 156.375 191.46875 156.375 C 192.042969 156.375 192.503906 156.789062 192.832031 157.609375 C 192.9375 157.878906 193.035156 158.199219 193.117188 158.558594 C 193.742188 157.109375 194.546875 156.171875 195.507812 156.109375 C 199.324219 155.863281 230.949219 156.621094 234.085938 157.171875 C 237.457031 157.761719 245.53125 165.707031 246.441406 166.613281 C 246.519531 166.691406 246.570312 166.785156 246.585938 166.886719 C 247.589844 157.640625 249.4375 147.9375 252.785156 147.5 C 253.339844 147.425781 253.589844 147.28125 253.589844 147.164062 C 253.609375 146.039062 247.898438 142.546875 243.75 141.875 C 242.695312 141.707031 241.757812 141.9375 240.882812 142.585938 C 237.761719 144.902344 236.578125 151.761719 236.214844 154.601562 C 236.070312 155.722656 235.070312 156.511719 233.9375 156.40625 C 229.136719 155.945312 215.515625 154.878906 192.757812 154.878906 C 170.304688 154.878906 153.472656 156.023438 148.851562 156.378906 C 147.941406 156.445312 147.136719 155.828125 146.976562 154.9375 C 146.503906 152.324219 144.554688 143.660156 139.320312 141.859375 C 137.988281 141.402344 135.664062 142.082031 133.308594 143.105469 C 130.308594 146.210938 126.507812 146.792969 126.441406 146.800781 C 126.234375 146.832031 126.035156 146.710938 125.960938 146.515625 C 125.886719 146.320312 125.957031 146.101562 126.132812 145.988281 C 126.359375 145.839844 129.515625 143.785156 132.886719 142.3125 C 134.617188 140.410156 136.011719 137.527344 136.011719 133.175781 C 136.011719 130.957031 136.769531 129.125 138.265625 127.730469 C 142.902344 123.402344 153.679688 124.078125 161.546875 124.570312 C 163.679688 124.703125 165.523438 124.816406 166.972656 124.816406 C 168.050781 124.816406 169.3125 124.746094 170.644531 124.667969 C 176.308594 124.339844 184.066406 123.890625 188.867188 128.503906 C 189.949219 129.542969 190.839844 130.804688 191.53125 132.28125 C 191.800781 131.878906 192.089844 131.476562 192.410156 131.085938 C 195.625 127.121094 200.574219 125.101562 207.121094 125.082031 C 210.792969 125.070312 214.257812 125.015625 217.3125 124.972656 C 236.335938 124.679688 245.886719 124.535156 246.835938 135.066406 C 247.417969 141.546875 250.300781 142.351562 253.636719 143.289062 C 256.171875 144 258.792969 144.734375 260.492188 148 C 263.613281 153.980469 258.804688 176.917969 253.429688 186.808594 C 251.746094 189.90625 250.105469 191.5625 248.554688 191.71875 C 246.765625 191.902344 244.835938 192.0625 242.789062 192.199219 C 242.980469 192.539062 243.164062 192.90625 243.332031 193.289062 L 262.386719 193.289062 C 262.398438 193.289062 262.410156 193.292969 262.417969 193.292969 C 262.515625 193.296875 262.976562 194.226562 262.371094 194.183594 L 243.679688 194.183594 C 245.054688 198.035156 245.3125 203.320312 245.335938 206.253906 C 245.34375 207.011719 244.753906 207.640625 243.996094 207.691406 L 243.019531 207.753906 C 242.371094 207.792969 241.773438 207.398438 241.5625 206.785156 L 237.644531 195.171875 C 237.496094 194.730469 237.566406 194.261719 237.839844 193.886719 C 238.113281 193.507812 238.539062 193.289062 239.003906 193.289062 L 242.328125 193.289062 C 242.152344 192.917969 241.964844 192.574219 241.761719 192.265625 C 210.394531 194.234375 153.328125 191.488281 152.710938 191.457031 C 152.476562 191.445312 152.292969 191.257812 152.285156 191.023438 C 152.277344 190.792969 152.453125 190.59375 152.6875 190.570312 C 153.109375 190.523438 195.507812 186.121094 239.171875 189.511719 C 240.425781 189.609375 241.425781 190.292969 242.222656 191.34375 C 244.449219 191.199219 246.539062 191.027344 248.464844 190.832031 C 249.316406 190.746094 250.730469 189.902344 252.640625 186.382812 C 257.847656 176.800781 262.632812 154.039062 259.695312 148.410156 C 258.171875 145.488281 255.851562 144.835938 253.394531 144.144531 C 250.042969 143.207031 246.578125 142.238281 245.941406 135.148438 C 245.066406 125.441406 236.371094 125.574219 217.328125 125.863281 C 214.265625 125.910156 210.800781 125.960938 207.125 125.972656 C 198.652344 126 194.242188 129.441406 191.957031 133.277344 C 192.960938 135.886719 193.425781 139.089844 193.332031 142.855469 C 193.21875 147.578125 192.5 149.960938 191.203125 149.941406 C 189.59375 149.917969 188.621094 146.039062 188.644531 142.460938 C 188.65625 140.363281 189.007812 136.683594 190.964844 133.214844 C 190.285156 131.59375 189.378906 130.234375 188.246094 129.144531 C 183.722656 124.804688 176.5 125.222656 170.695312 125.558594 C 169.351562 125.636719 168.078125 125.710938 166.972656 125.710938 C 165.492188 125.710938 163.640625 125.59375 161.492188 125.460938 C 153.785156 124.976562 143.230469 124.320312 138.878906 128.382812 C 137.554688 129.617188 136.910156 131.1875 136.910156 133.175781 C 136.910156 136.9375 135.898438 139.675781 134.5 141.664062 C 136.457031 140.953125 138.339844 140.578125 139.617188 141.015625 C 145.152344 142.921875 147.226562 151.277344 147.859375 154.78125 C 147.941406 155.21875 148.335938 155.519531 148.78125 155.488281 C 153.414062 155.136719 170.273438 153.988281 192.757812 153.988281 C 215.554688 153.988281 229.210938 155.058594 234.023438 155.519531 C 234.675781 155.578125 235.242188 155.128906 235.324219 154.488281 C 235.792969 150.820312 237.070312 144.304688 240.34375 141.875 C 241.410156 141.082031 242.605469 140.789062 243.894531 140.996094 C 247.601562 141.59375 254.519531 145.082031 254.488281 147.179688 C 254.480469 147.636719 254.199219 148.214844 252.902344 148.382812 C 250.140625 148.742188 247.765625 159.386719 246.703125 176.160156 C 246.605469 177.738281 245.28125 178.980469 243.691406 178.984375 C 234.210938 179.019531 202.820312 179.125 196.851562 178.976562 C 194.992188 178.929688 193.546875 177.535156 192.648438 175.054688 C 192.34375 176.59375 191.984375 177.703125 191.601562 178.0625 C 189.972656 179.589844 174.386719 180.390625 166.375 180.597656 C 154.996094 180.894531 141.710938 180.613281 138.546875 178.921875 C 135.753906 177.429688 133.972656 171.132812 132.085938 164.46875 C 129.917969 156.804688 127.464844 148.117188 123.492188 148.386719 C 122.851562 148.429688 122.359375 148.753906 121.992188 149.375 C 118.453125 155.328125 127.6875 183.085938 129.707031 187.394531 C 130.289062 188.644531 131.300781 189.589844 132.480469 190.300781 L 144.769531 190.300781 C 145.210938 190.300781 145.621094 190.5 145.894531 190.84375 C 146.167969 191.1875 146.269531 191.628906 146.167969 192.054688 L 142.292969 208.550781 C 142.140625 209.199219 141.566406 209.652344 140.894531 209.652344 L 139.125 209.652344 C 138.703125 209.652344 138.304688 209.46875 138.03125 209.152344 C 137.757812 208.832031 137.640625 208.410156 137.707031 207.996094 L 140.003906 193.929688 C 140.027344 193.78125 139.992188 193.636719 139.898438 193.515625 C 139.808594 193.398438 139.675781 193.328125 139.53125 193.3125 C 137.898438 193.144531 134.785156 192.648438 132.246094 191.195312 L 113.292969 191.195312 C 112.042969 191.195312 111.707031 190.300781 113.292969 190.300781 " fill-opacity="1" fill-rule="nonzero"/></g><g fill="#000001" fill-opacity="1"><g transform="translate(126.840046, 241.394319)"><g><path d="M 17.234375 -2.375 C 17.410156 -2.039062 17.421875 -1.707031 17.265625 -1.375 C 17.160156 -1.03125 16.972656 -0.769531 16.703125 -0.59375 C 16.578125 -0.476562 16.457031 -0.382812 16.34375 -0.3125 C 16.238281 -0.238281 16.117188 -0.175781 15.984375 -0.125 C 15.742188 0 15.457031 0.0390625 15.125 0 C 15 0 14.878906 -0.0195312 14.765625 -0.0625 C 14.660156 -0.101562 14.550781 -0.160156 14.4375 -0.234375 C 14.332031 -0.296875 14.21875 -0.363281 14.09375 -0.4375 C 13.96875 -0.519531 13.851562 -0.601562 13.75 -0.6875 C 13.613281 -0.800781 13.488281 -0.898438 13.375 -0.984375 C 13.269531 -1.078125 13.175781 -1.175781 13.09375 -1.28125 C 12.976562 -1.394531 12.875 -1.503906 12.78125 -1.609375 C 12.695312 -1.722656 12.613281 -1.820312 12.53125 -1.90625 L 12.140625 -2.328125 L 5.828125 -8.953125 L 5.921875 -2.328125 L 5.921875 -2.046875 C 5.921875 -1.953125 5.910156 -1.851562 5.890625 -1.75 C 5.867188 -1.65625 5.847656 -1.554688 5.828125 -1.453125 C 5.753906 -1.160156 5.675781 -0.90625 5.59375 -0.6875 C 5.550781 -0.5625 5.488281 -0.453125 5.40625 -0.359375 C 5.332031 -0.273438 5.25 -0.1875 5.15625 -0.09375 C 4.914062 0.125 4.632812 0.242188 4.3125 0.265625 C 3.976562 0.367188 3.675781 0.40625 3.40625 0.375 C 3.132812 0.34375 2.851562 0.257812 2.5625 0.125 C 2.34375 0 2.144531 -0.21875 1.96875 -0.53125 C 1.925781 -0.613281 1.894531 -0.664062 1.875 -0.6875 C 1.875 -0.707031 1.851562 -0.785156 1.8125 -0.921875 C 1.675781 -1.140625 1.609375 -1.359375 1.609375 -1.578125 C 1.585938 -1.710938 1.570312 -1.832031 1.5625 -1.9375 C 1.550781 -2.050781 1.535156 -2.171875 1.515625 -2.296875 C 1.492188 -2.390625 1.484375 -2.476562 1.484375 -2.5625 C 1.484375 -2.65625 1.484375 -2.742188 1.484375 -2.828125 C 1.503906 -2.941406 1.515625 -3.035156 1.515625 -3.109375 C 1.515625 -3.179688 1.515625 -3.273438 1.515625 -3.390625 L 1.484375 -5.984375 L 1.453125 -10.828125 C 1.453125 -12.222656 1.414062 -13.734375 1.34375 -15.359375 C 1.320312 -16.148438 1.3125 -16.851562 1.3125 -17.46875 C 1.3125 -18.082031 1.320312 -18.769531 1.34375 -19.53125 L 1.34375 -19.671875 C 1.394531 -19.910156 1.421875 -20.144531 1.421875 -20.375 C 1.421875 -20.601562 1.429688 -20.828125 1.453125 -21.046875 C 1.453125 -21.484375 1.550781 -21.921875 1.75 -22.359375 C 1.875 -22.691406 2.101562 -22.957031 2.4375 -23.15625 C 2.613281 -23.257812 2.78125 -23.328125 2.9375 -23.359375 C 3.101562 -23.398438 3.285156 -23.441406 3.484375 -23.484375 C 3.640625 -23.484375 3.785156 -23.472656 3.921875 -23.453125 C 4.066406 -23.429688 4.207031 -23.410156 4.34375 -23.390625 C 4.625 -23.335938 4.882812 -23.210938 5.125 -23.015625 C 5.195312 -22.953125 5.257812 -22.875 5.3125 -22.78125 C 5.363281 -22.695312 5.410156 -22.59375 5.453125 -22.46875 C 5.566406 -22.289062 5.644531 -22.035156 5.6875 -21.703125 C 5.707031 -21.578125 5.722656 -21.445312 5.734375 -21.3125 C 5.742188 -21.175781 5.75 -21.035156 5.75 -20.890625 L 5.75 -19.53125 L 5.78125 -15.53125 C 6.132812 -15.832031 6.476562 -16.144531 6.8125 -16.46875 C 7.15625 -16.800781 7.492188 -17.15625 7.828125 -17.53125 C 8.421875 -18.144531 9.003906 -18.738281 9.578125 -19.3125 C 10.160156 -19.894531 10.75 -20.472656 11.34375 -21.046875 L 11.453125 -21.15625 C 11.617188 -21.320312 11.796875 -21.488281 11.984375 -21.65625 C 12.171875 -21.820312 12.351562 -21.984375 12.53125 -22.140625 C 12.863281 -22.503906 13.269531 -22.765625 13.75 -22.921875 C 14.050781 -23.117188 14.410156 -23.195312 14.828125 -23.15625 C 15.023438 -23.132812 15.207031 -23.085938 15.375 -23.015625 C 15.539062 -22.953125 15.703125 -22.867188 15.859375 -22.765625 C 15.960938 -22.648438 16.066406 -22.550781 16.171875 -22.46875 C 16.285156 -22.394531 16.375 -22.304688 16.4375 -22.203125 C 16.613281 -22.046875 16.726562 -21.816406 16.78125 -21.515625 C 16.78125 -21.273438 16.734375 -21.054688 16.640625 -20.859375 C 16.578125 -20.742188 16.507812 -20.628906 16.4375 -20.515625 C 16.375 -20.410156 16.300781 -20.300781 16.21875 -20.1875 C 16.101562 -20.0625 16 -19.941406 15.90625 -19.828125 C 15.820312 -19.722656 15.726562 -19.613281 15.625 -19.5 C 15.53125 -19.394531 15.4375 -19.296875 15.34375 -19.203125 C 15.25 -19.117188 15.15625 -19.019531 15.0625 -18.90625 L 14.640625 -18.484375 L 8.484375 -12.203125 C 8.816406 -11.867188 9.160156 -11.519531 9.515625 -11.15625 C 9.878906 -10.800781 10.222656 -10.453125 10.546875 -10.109375 C 10.878906 -9.773438 11.1875 -9.457031 11.46875 -9.15625 C 11.757812 -8.863281 12.003906 -8.617188 12.203125 -8.421875 C 12.796875 -7.804688 13.363281 -7.195312 13.90625 -6.59375 C 14.457031 -5.988281 15 -5.378906 15.53125 -4.765625 L 15.625 -4.671875 C 15.800781 -4.492188 15.960938 -4.3125 16.109375 -4.125 C 16.265625 -3.9375 16.410156 -3.753906 16.546875 -3.578125 C 16.867188 -3.210938 17.097656 -2.8125 17.234375 -2.375 Z M 17.234375 -2.375 "/></g></g></g><g fill="#000001" fill-opacity="1"><g transform="translate(145.557007, 241.394319)"><g><path d="M 12.703125 -4.5 C 12.960938 -4.570312 13.226562 -4.617188 13.5 -4.640625 C 13.769531 -4.660156 14.019531 -4.625 14.25 -4.53125 C 14.488281 -4.445312 14.679688 -4.300781 14.828125 -4.09375 C 14.984375 -3.882812 15.0625 -3.59375 15.0625 -3.21875 C 15.0625 -2.957031 14.992188 -2.707031 14.859375 -2.46875 C 14.734375 -2.226562 14.570312 -2.007812 14.375 -1.8125 C 14.175781 -1.613281 13.957031 -1.441406 13.71875 -1.296875 C 13.476562 -1.148438 13.25 -1.035156 13.03125 -0.953125 C 12.394531 -0.671875 11.664062 -0.453125 10.84375 -0.296875 C 10.019531 -0.140625 9.164062 -0.0820312 8.28125 -0.125 C 7.101562 -0.175781 5.96875 -0.414062 4.875 -0.84375 C 3.789062 -1.269531 2.941406 -1.972656 2.328125 -2.953125 C 1.765625 -3.921875 1.425781 -4.992188 1.3125 -6.171875 C 1.207031 -7.359375 1.265625 -8.476562 1.484375 -9.53125 C 1.722656 -10.8125 2.128906 -11.847656 2.703125 -12.640625 C 3.285156 -13.441406 3.984375 -14.085938 4.796875 -14.578125 C 5.785156 -15.140625 6.894531 -15.429688 8.125 -15.453125 C 9.351562 -15.472656 10.523438 -15.234375 11.640625 -14.734375 C 12.390625 -14.398438 13.054688 -13.953125 13.640625 -13.390625 C 14.234375 -12.835938 14.6875 -12.164062 15 -11.375 C 15.082031 -11.175781 15.148438 -10.9375 15.203125 -10.65625 C 15.265625 -10.375 15.304688 -10.070312 15.328125 -9.75 C 15.347656 -9.4375 15.347656 -9.125 15.328125 -8.8125 C 15.304688 -8.507812 15.25 -8.238281 15.15625 -8 C 15.03125 -7.601562 14.867188 -7.296875 14.671875 -7.078125 C 14.472656 -6.859375 14.21875 -6.691406 13.90625 -6.578125 C 13.601562 -6.460938 13.238281 -6.390625 12.8125 -6.359375 C 12.382812 -6.328125 11.875 -6.300781 11.28125 -6.28125 C 10.75 -6.257812 10.253906 -6.25 9.796875 -6.25 C 9.335938 -6.25 8.863281 -6.253906 8.375 -6.265625 C 7.894531 -6.273438 7.398438 -6.285156 6.890625 -6.296875 C 6.378906 -6.304688 5.800781 -6.320312 5.15625 -6.34375 C 5.09375 -5.90625 5.15625 -5.523438 5.34375 -5.203125 C 5.53125 -4.890625 5.785156 -4.628906 6.109375 -4.421875 C 6.441406 -4.210938 6.816406 -4.050781 7.234375 -3.9375 C 7.648438 -3.832031 8.054688 -3.769531 8.453125 -3.75 C 9.203125 -3.707031 9.914062 -3.765625 10.59375 -3.921875 C 11.269531 -4.085938 11.972656 -4.28125 12.703125 -4.5 Z M 11.28125 -10.890625 C 10.863281 -11.367188 10.425781 -11.71875 9.96875 -11.9375 C 9.613281 -12.09375 9.242188 -12.164062 8.859375 -12.15625 C 8.472656 -12.144531 8.109375 -12.082031 7.765625 -11.96875 C 7.128906 -11.8125 6.59375 -11.484375 6.15625 -10.984375 C 6.101562 -10.941406 6.019531 -10.835938 5.90625 -10.671875 C 5.800781 -10.503906 5.695312 -10.332031 5.59375 -10.15625 C 5.5 -9.988281 5.429688 -9.828125 5.390625 -9.671875 C 5.347656 -9.515625 5.367188 -9.4375 5.453125 -9.4375 L 11.90625 -9.4375 C 11.882812 -9.75 11.828125 -10.007812 11.734375 -10.21875 C 11.648438 -10.425781 11.5 -10.648438 11.28125 -10.890625 Z M 11.28125 -10.890625 "/></g></g></g><g fill="#000001" fill-opacity="1"><g transform="translate(162.234518, 241.394319)"><g><path d="M 1.34375 -11.640625 C 1.34375 -11.898438 1.34375 -12.203125 1.34375 -12.546875 C 1.34375 -12.890625 1.351562 -13.238281 1.375 -13.59375 C 1.40625 -13.957031 1.445312 -14.304688 1.5 -14.640625 C 1.550781 -14.984375 1.632812 -15.289062 1.75 -15.5625 C 1.914062 -15.957031 2.1875 -16.222656 2.5625 -16.359375 C 2.9375 -16.503906 3.34375 -16.566406 3.78125 -16.546875 C 4.238281 -16.546875 4.597656 -16.46875 4.859375 -16.3125 C 5.128906 -16.15625 5.328125 -15.953125 5.453125 -15.703125 C 5.585938 -15.453125 5.671875 -15.164062 5.703125 -14.84375 C 5.734375 -14.53125 5.75 -14.195312 5.75 -13.84375 C 5.945312 -14.195312 6.21875 -14.484375 6.5625 -14.703125 C 6.90625 -14.921875 7.25 -15.09375 7.59375 -15.21875 C 7.945312 -15.351562 8.265625 -15.445312 8.546875 -15.5 C 8.835938 -15.5625 9.003906 -15.59375 9.046875 -15.59375 C 9.585938 -15.632812 10.082031 -15.644531 10.53125 -15.625 C 10.988281 -15.601562 11.488281 -15.503906 12.03125 -15.328125 C 12.382812 -15.191406 12.75 -15.007812 13.125 -14.78125 C 13.5 -14.550781 13.828125 -14.28125 14.109375 -13.96875 C 14.390625 -13.664062 14.578125 -13.332031 14.671875 -12.96875 C 14.773438 -12.613281 14.726562 -12.238281 14.53125 -11.84375 C 14.226562 -11.289062 13.890625 -11.019531 13.515625 -11.03125 C 13.140625 -11.039062 12.734375 -11.101562 12.296875 -11.21875 C 12.054688 -11.257812 11.769531 -11.351562 11.4375 -11.5 C 11.113281 -11.65625 10.832031 -11.757812 10.59375 -11.8125 C 9.84375 -11.914062 9.179688 -11.859375 8.609375 -11.640625 C 8.046875 -11.421875 7.554688 -11.160156 7.140625 -10.859375 C 6.648438 -10.484375 6.234375 -10.054688 5.890625 -9.578125 L 5.890625 -4.828125 C 5.890625 -4.242188 5.882812 -3.632812 5.875 -3 C 5.863281 -2.363281 5.773438 -1.785156 5.609375 -1.265625 C 5.441406 -0.753906 5.164062 -0.335938 4.78125 -0.015625 C 4.394531 0.296875 3.84375 0.429688 3.125 0.390625 C 2.726562 0.367188 2.375 0.179688 2.0625 -0.171875 C 1.757812 -0.535156 1.578125 -0.894531 1.515625 -1.25 C 1.472656 -1.582031 1.4375 -1.976562 1.40625 -2.4375 C 1.382812 -2.894531 1.367188 -3.375 1.359375 -3.875 C 1.347656 -4.382812 1.34375 -4.894531 1.34375 -5.40625 C 1.34375 -5.925781 1.34375 -6.40625 1.34375 -6.84375 Z M 1.34375 -11.640625 "/></g></g></g><g fill="#000001" fill-opacity="1"><g transform="translate(178.287025, 241.394319)"><g><path d="M 1.375 -20.78125 C 1.425781 -21.570312 1.675781 -22.207031 2.125 -22.6875 C 2.570312 -23.175781 3.210938 -23.3125 4.046875 -23.09375 C 4.441406 -22.976562 4.734375 -22.8125 4.921875 -22.59375 C 5.109375 -22.375 5.238281 -22.113281 5.3125 -21.8125 C 5.382812 -21.519531 5.421875 -21.203125 5.421875 -20.859375 C 5.421875 -20.523438 5.421875 -20.191406 5.421875 -19.859375 L 5.421875 -15.328125 C 5.398438 -15.148438 5.394531 -14.976562 5.40625 -14.8125 C 5.414062 -14.65625 5.421875 -14.507812 5.421875 -14.375 L 5.421875 -13.953125 L 6.25 -13.953125 C 6.488281 -13.953125 6.722656 -13.953125 6.953125 -13.953125 C 7.179688 -13.953125 7.382812 -13.960938 7.5625 -13.984375 C 8.769531 -13.984375 9.804688 -13.804688 10.671875 -13.453125 C 11.535156 -13.097656 12.234375 -12.609375 12.765625 -11.984375 C 13.304688 -11.359375 13.703125 -10.613281 13.953125 -9.75 C 14.210938 -8.882812 14.332031 -7.9375 14.3125 -6.90625 C 14.289062 -5.675781 14.09375 -4.625 13.71875 -3.75 C 13.34375 -2.875 12.8125 -2.148438 12.125 -1.578125 C 11.445312 -1.003906 10.628906 -0.582031 9.671875 -0.3125 C 8.722656 -0.0390625 7.660156 0.09375 6.484375 0.09375 C 5.117188 0.09375 4.082031 0.0820312 3.375 0.0625 C 2.675781 0.0390625 2.179688 -0.148438 1.890625 -0.515625 C 1.597656 -0.890625 1.4375 -1.535156 1.40625 -2.453125 C 1.382812 -3.378906 1.375 -4.734375 1.375 -6.515625 C 1.375 -8.222656 1.378906 -9.910156 1.390625 -11.578125 C 1.410156 -13.242188 1.40625 -14.921875 1.375 -16.609375 C 1.375 -16.828125 1.367188 -17.054688 1.359375 -17.296875 C 1.347656 -17.535156 1.34375 -17.804688 1.34375 -18.109375 C 1.34375 -18.421875 1.34375 -18.789062 1.34375 -19.21875 C 1.34375 -19.644531 1.351562 -20.164062 1.375 -20.78125 Z M 7.53125 -3.578125 C 8.738281 -3.648438 9.570312 -3.984375 10.03125 -4.578125 C 10.269531 -4.898438 10.453125 -5.289062 10.578125 -5.75 C 10.710938 -6.21875 10.769531 -6.679688 10.75 -7.140625 C 10.726562 -7.597656 10.632812 -8.039062 10.46875 -8.46875 C 10.3125 -8.894531 10.054688 -9.25 9.703125 -9.53125 C 9.398438 -9.800781 9.09375 -9.992188 8.78125 -10.109375 C 8.476562 -10.234375 8.160156 -10.3125 7.828125 -10.34375 C 7.492188 -10.375 7.140625 -10.382812 6.765625 -10.375 C 6.398438 -10.363281 5.976562 -10.347656 5.5 -10.328125 L 5.5 -6.375 L 5.421875 -3.65625 C 5.640625 -3.632812 5.875 -3.609375 6.125 -3.578125 C 6.539062 -3.535156 7.007812 -3.535156 7.53125 -3.578125 Z M 7.53125 -3.578125 "/></g></g></g><g fill="#000001" fill-opacity="1"><g transform="translate(193.94481, 241.394319)"><g><path d="M 9.171875 -5.78125 C 8.753906 -6.050781 8.285156 -6.257812 7.765625 -6.40625 C 7.253906 -6.5625 6.726562 -6.703125 6.1875 -6.828125 C 5.65625 -6.960938 5.132812 -7.113281 4.625 -7.28125 C 4.125 -7.445312 3.664062 -7.6875 3.25 -8 C 2.351562 -8.675781 1.832031 -9.507812 1.6875 -10.5 C 1.550781 -11.5 1.765625 -12.503906 2.328125 -13.515625 C 2.640625 -14.046875 3.046875 -14.476562 3.546875 -14.8125 C 4.054688 -15.15625 4.613281 -15.421875 5.21875 -15.609375 C 5.820312 -15.796875 6.441406 -15.898438 7.078125 -15.921875 C 7.710938 -15.941406 8.3125 -15.910156 8.875 -15.828125 C 9.25 -15.753906 9.644531 -15.65625 10.0625 -15.53125 C 10.476562 -15.414062 10.867188 -15.257812 11.234375 -15.0625 C 11.597656 -14.863281 11.925781 -14.613281 12.21875 -14.3125 C 12.507812 -14.019531 12.722656 -13.65625 12.859375 -13.21875 C 12.941406 -12.9375 12.957031 -12.660156 12.90625 -12.390625 C 12.851562 -12.128906 12.742188 -11.910156 12.578125 -11.734375 C 12.410156 -11.566406 12.203125 -11.4375 11.953125 -11.34375 C 11.703125 -11.257812 11.4375 -11.238281 11.15625 -11.28125 C 10.820312 -11.34375 10.507812 -11.441406 10.21875 -11.578125 C 9.9375 -11.710938 9.65625 -11.851562 9.375 -12 C 9.09375 -12.15625 8.800781 -12.285156 8.5 -12.390625 C 8.207031 -12.503906 7.894531 -12.5625 7.5625 -12.5625 C 7.0625 -12.582031 6.644531 -12.492188 6.3125 -12.296875 C 5.988281 -12.097656 5.765625 -11.859375 5.640625 -11.578125 C 5.515625 -11.296875 5.523438 -10.988281 5.671875 -10.65625 C 5.816406 -10.320312 6.117188 -10.035156 6.578125 -9.796875 C 6.992188 -9.578125 7.453125 -9.398438 7.953125 -9.265625 C 8.460938 -9.140625 8.960938 -9.007812 9.453125 -8.875 C 9.953125 -8.75 10.4375 -8.597656 10.90625 -8.421875 C 11.375 -8.242188 11.796875 -8.003906 12.171875 -7.703125 C 12.890625 -7.109375 13.332031 -6.414062 13.5 -5.625 C 13.664062 -4.832031 13.613281 -4.050781 13.34375 -3.28125 C 13.082031 -2.519531 12.628906 -1.84375 11.984375 -1.25 C 11.335938 -0.65625 10.578125 -0.257812 9.703125 -0.0625 C 9.066406 0.0625 8.378906 0.125 7.640625 0.125 C 6.910156 0.125 6.1875 0.0507812 5.46875 -0.09375 C 4.757812 -0.25 4.082031 -0.488281 3.4375 -0.8125 C 2.789062 -1.144531 2.25 -1.566406 1.8125 -2.078125 C 1.5 -2.421875 1.335938 -2.816406 1.328125 -3.265625 C 1.316406 -3.722656 1.40625 -4.117188 1.59375 -4.453125 C 1.78125 -4.796875 2.046875 -5.03125 2.390625 -5.15625 C 2.742188 -5.289062 3.140625 -5.21875 3.578125 -4.9375 C 3.929688 -4.695312 4.347656 -4.457031 4.828125 -4.21875 C 5.316406 -3.988281 5.800781 -3.804688 6.28125 -3.671875 C 6.757812 -3.546875 7.222656 -3.484375 7.671875 -3.484375 C 8.128906 -3.484375 8.519531 -3.582031 8.84375 -3.78125 C 9.332031 -4.09375 9.585938 -4.445312 9.609375 -4.84375 C 9.628906 -5.25 9.484375 -5.5625 9.171875 -5.78125 Z M 9.171875 -5.78125 "/></g></g></g><g fill="#000001" fill-opacity="1"><g transform="translate(208.878904, 241.394319)"><g><path d="M 5.453125 -12.46875 C 5.453125 -11.851562 5.457031 -11.160156 5.46875 -10.390625 C 5.488281 -9.628906 5.5 -8.835938 5.5 -8.015625 C 5.5 -7.191406 5.5 -6.378906 5.5 -5.578125 C 5.5 -4.773438 5.484375 -4.035156 5.453125 -3.359375 C 5.429688 -3.023438 5.398438 -2.664062 5.359375 -2.28125 C 5.316406 -1.894531 5.226562 -1.535156 5.09375 -1.203125 C 4.96875 -0.878906 4.765625 -0.613281 4.484375 -0.40625 C 4.210938 -0.195312 3.847656 -0.101562 3.390625 -0.125 C 2.710938 -0.175781 2.222656 -0.472656 1.921875 -1.015625 C 1.628906 -1.566406 1.460938 -2.335938 1.421875 -3.328125 C 1.421875 -3.828125 1.410156 -4.40625 1.390625 -5.0625 C 1.378906 -5.71875 1.367188 -6.382812 1.359375 -7.0625 C 1.347656 -7.75 1.34375 -8.414062 1.34375 -9.0625 C 1.34375 -9.707031 1.34375 -10.296875 1.34375 -10.828125 C 1.34375 -11.128906 1.335938 -11.5 1.328125 -11.9375 C 1.316406 -12.375 1.320312 -12.820312 1.34375 -13.28125 C 1.363281 -13.75 1.414062 -14.195312 1.5 -14.625 C 1.59375 -15.050781 1.738281 -15.40625 1.9375 -15.6875 C 2.09375 -15.863281 2.3125 -16 2.59375 -16.09375 C 2.882812 -16.195312 3.1875 -16.25 3.5 -16.25 C 3.820312 -16.25 4.128906 -16.191406 4.421875 -16.078125 C 4.722656 -15.972656 4.9375 -15.820312 5.0625 -15.625 C 5.15625 -15.488281 5.222656 -15.300781 5.265625 -15.0625 C 5.304688 -14.820312 5.34375 -14.550781 5.375 -14.25 C 5.40625 -13.957031 5.425781 -13.648438 5.4375 -13.328125 C 5.445312 -13.015625 5.453125 -12.726562 5.453125 -12.46875 Z M 4.203125 -19.109375 C 3.523438 -18.929688 2.960938 -19 2.515625 -19.3125 C 2.066406 -19.632812 1.785156 -20.113281 1.671875 -20.75 C 1.585938 -21.207031 1.617188 -21.613281 1.765625 -21.96875 C 1.921875 -22.320312 2.148438 -22.59375 2.453125 -22.78125 C 2.765625 -22.96875 3.117188 -23.046875 3.515625 -23.015625 C 3.910156 -22.992188 4.304688 -22.84375 4.703125 -22.5625 C 5.078125 -22.300781 5.34375 -21.992188 5.5 -21.640625 C 5.664062 -21.285156 5.722656 -20.941406 5.671875 -20.609375 C 5.617188 -20.285156 5.472656 -19.988281 5.234375 -19.71875 C 4.992188 -19.445312 4.648438 -19.242188 4.203125 -19.109375 Z M 4.203125 -19.109375 "/></g></g></g><g fill="#000001" fill-opacity="1"><g transform="translate(215.918323, 241.394319)"><g><path d="M 11.578125 -22.984375 C 11.992188 -23.097656 12.359375 -23.113281 12.671875 -23.03125 C 12.992188 -22.957031 13.269531 -22.8125 13.5 -22.59375 C 13.726562 -22.375 13.898438 -22.097656 14.015625 -21.765625 C 14.140625 -21.441406 14.203125 -21.082031 14.203125 -20.6875 C 14.222656 -19.59375 14.226562 -18.738281 14.21875 -18.125 C 14.207031 -17.507812 14.203125 -16.972656 14.203125 -16.515625 L 14.203125 -6.40625 C 14.203125 -5.226562 14.203125 -4.242188 14.203125 -3.453125 C 14.203125 -2.660156 14.164062 -2.019531 14.09375 -1.53125 C 14.019531 -1.039062 13.890625 -0.671875 13.703125 -0.421875 C 13.515625 -0.179688 13.234375 -0.015625 12.859375 0.078125 C 12.484375 0.179688 11.992188 0.234375 11.390625 0.234375 C 10.785156 0.234375 10.035156 0.234375 9.140625 0.234375 C 6.773438 0.234375 4.90625 -0.320312 3.53125 -1.4375 C 2.164062 -2.5625 1.4375 -4.34375 1.34375 -6.78125 C 1.300781 -7.832031 1.429688 -8.796875 1.734375 -9.671875 C 2.046875 -10.546875 2.503906 -11.296875 3.109375 -11.921875 C 3.710938 -12.546875 4.457031 -13.023438 5.34375 -13.359375 C 6.226562 -13.703125 7.242188 -13.863281 8.390625 -13.84375 L 10.203125 -13.84375 L 10.203125 -19.734375 C 10.203125 -20.085938 10.203125 -20.429688 10.203125 -20.765625 C 10.203125 -21.109375 10.234375 -21.425781 10.296875 -21.71875 C 10.359375 -22.019531 10.488281 -22.28125 10.6875 -22.5 C 10.882812 -22.71875 11.179688 -22.878906 11.578125 -22.984375 Z M 5.859375 -4.734375 C 6.316406 -4.097656 7.148438 -3.75 8.359375 -3.6875 C 8.597656 -3.664062 8.828125 -3.660156 9.046875 -3.671875 C 9.265625 -3.679688 9.460938 -3.707031 9.640625 -3.75 C 9.835938 -3.769531 10.023438 -3.800781 10.203125 -3.84375 L 10.203125 -9.9375 C 9.429688 -10.0625 8.734375 -10.140625 8.109375 -10.171875 C 7.484375 -10.210938 6.863281 -9.988281 6.25 -9.5 C 5.914062 -9.238281 5.660156 -8.90625 5.484375 -8.5 C 5.316406 -8.09375 5.21875 -7.664062 5.1875 -7.21875 C 5.164062 -6.769531 5.210938 -6.328125 5.328125 -5.890625 C 5.441406 -5.453125 5.617188 -5.066406 5.859375 -4.734375 Z M 5.859375 -4.734375 "/></g></g></g><g fill="#000001" fill-opacity="1"><g transform="translate(231.47742, 241.394319)"><g><path d="M 12.703125 -4.5 C 12.960938 -4.570312 13.226562 -4.617188 13.5 -4.640625 C 13.769531 -4.660156 14.019531 -4.625 14.25 -4.53125 C 14.488281 -4.445312 14.679688 -4.300781 14.828125 -4.09375 C 14.984375 -3.882812 15.0625 -3.59375 15.0625 -3.21875 C 15.0625 -2.957031 14.992188 -2.707031 14.859375 -2.46875 C 14.734375 -2.226562 14.570312 -2.007812 14.375 -1.8125 C 14.175781 -1.613281 13.957031 -1.441406 13.71875 -1.296875 C 13.476562 -1.148438 13.25 -1.035156 13.03125 -0.953125 C 12.394531 -0.671875 11.664062 -0.453125 10.84375 -0.296875 C 10.019531 -0.140625 9.164062 -0.0820312 8.28125 -0.125 C 7.101562 -0.175781 5.96875 -0.414062 4.875 -0.84375 C 3.789062 -1.269531 2.941406 -1.972656 2.328125 -2.953125 C 1.765625 -3.921875 1.425781 -4.992188 1.3125 -6.171875 C 1.207031 -7.359375 1.265625 -8.476562 1.484375 -9.53125 C 1.722656 -10.8125 2.128906 -11.847656 2.703125 -12.640625 C 3.285156 -13.441406 3.984375 -14.085938 4.796875 -14.578125 C 5.785156 -15.140625 6.894531 -15.429688 8.125 -15.453125 C 9.351562 -15.472656 10.523438 -15.234375 11.640625 -14.734375 C 12.390625 -14.398438 13.054688 -13.953125 13.640625 -13.390625 C 14.234375 -12.835938 14.6875 -12.164062 15 -11.375 C 15.082031 -11.175781 15.148438 -10.9375 15.203125 -10.65625 C 15.265625 -10.375 15.304688 -10.070312 15.328125 -9.75 C 15.347656 -9.4375 15.347656 -9.125 15.328125 -8.8125 C 15.304688 -8.507812 15.25 -8.238281 15.15625 -8 C 15.03125 -7.601562 14.867188 -7.296875 14.671875 -7.078125 C 14.472656 -6.859375 14.21875 -6.691406 13.90625 -6.578125 C 13.601562 -6.460938 13.238281 -6.390625 12.8125 -6.359375 C 12.382812 -6.328125 11.875 -6.300781 11.28125 -6.28125 C 10.75 -6.257812 10.253906 -6.25 9.796875 -6.25 C 9.335938 -6.25 8.863281 -6.253906 8.375 -6.265625 C 7.894531 -6.273438 7.398438 -6.285156 6.890625 -6.296875 C 6.378906 -6.304688 5.800781 -6.320312 5.15625 -6.34375 C 5.09375 -5.90625 5.15625 -5.523438 5.34375 -5.203125 C 5.53125 -4.890625 5.785156 -4.628906 6.109375 -4.421875 C 6.441406 -4.210938 6.816406 -4.050781 7.234375 -3.9375 C 7.648438 -3.832031 8.054688 -3.769531 8.453125 -3.75 C 9.203125 -3.707031 9.914062 -3.765625 10.59375 -3.921875 C 11.269531 -4.085938 11.972656 -4.28125 12.703125 -4.5 Z M 11.28125 -10.890625 C 10.863281 -11.367188 10.425781 -11.71875 9.96875 -11.9375 C 9.613281 -12.09375 9.242188 -12.164062 8.859375 -12.15625 C 8.472656 -12.144531 8.109375 -12.082031 7.765625 -11.96875 C 7.128906 -11.8125 6.59375 -11.484375 6.15625 -10.984375 C 6.101562 -10.941406 6.019531 -10.835938 5.90625 -10.671875 C 5.800781 -10.503906 5.695312 -10.332031 5.59375 -10.15625 C 5.5 -9.988281 5.429688 -9.828125 5.390625 -9.671875 C 5.347656 -9.515625 5.367188 -9.4375 5.453125 -9.4375 L 11.90625 -9.4375 C 11.882812 -9.75 11.828125 -10.007812 11.734375 -10.21875 C 11.648438 -10.425781 11.5 -10.648438 11.28125 -10.890625 Z M 11.28125 -10.890625 "/></g></g></g></svg>